<svg width="730" height="142" viewBox="0 0 730 142" fill="none" xmlns="http://www.w3.org/2000/svg">
<g filter="url(#filter0_d)">
<path d="M66 112L3 77.8583V58.9484L66 25V47.2109L22.1006 68.1663L66 89.912V112Z" fill="#0D7377"/>
<path d="M218 124L259.036 13H272L230.869 124H218Z" fill="#0D7377"/>
<path d="M282 112V89.9143L325.194 68.3466L282 46.9453V25L344 58.9889V77.7828L282 112Z" fill="#0D7377"/>
<path d="M79.4075 130.595C77.2099 128.398 76 125.477 76 122.369C76 119.262 77.2099 116.34 79.4075 114.143L164.45 29.1005C165.96 27.5902 168.409 27.5905 169.919 29.1005L180.903 40.0841C181.628 40.8093 182.035 41.7929 182.035 42.8184C182.035 43.844 181.628 44.8276 180.903 45.5528L95.8601 130.595C93.5921 132.863 90.6128 133.997 87.6338 133.997C84.6548 133.997 81.6755 132.863 79.4075 130.595V130.595Z" fill="#464B52"/>
<path d="M180.903 40.0841C181.628 40.8093 182.035 41.7928 182.035 42.8184C182.035 43.844 181.628 44.8275 180.903 45.5528L95.8601 130.595C93.5921 132.863 90.6128 133.997 87.6338 133.997C84.6548 133.997 81.6755 132.863 79.4075 130.595L175.411 34.5921L180.903 40.0841Z" fill="#292B2F"/>
<path d="M157.533 102.936C185.405 102.936 208 80.3417 208 52.4697C208 24.5976 185.405 2.00287 157.533 2.00287C129.661 2.00287 107.066 24.5976 107.066 52.4697C107.066 80.3417 129.661 102.936 157.533 102.936Z" fill="#32E0C4"/>
<path d="M193.202 16.8008C202.34 25.9392 208 38.5557 208 52.4696C208 80.2971 185.361 102.936 157.533 102.936C143.62 102.936 131.003 97.2766 121.865 88.1382L193.202 16.8008Z" fill="#0D7377"/>
<path d="M157.533 87.4033C176.826 87.4033 192.467 71.763 192.467 52.4697C192.467 33.1764 176.826 17.5361 157.533 17.5361C138.24 17.5361 122.6 33.1764 122.6 52.4697C122.6 71.763 138.24 87.4033 157.533 87.4033Z" fill="#8CDDD0"/>
<path d="M157.533 87.4032C147.902 87.4032 139.169 83.4855 132.843 77.1598L182.223 27.7794C188.549 34.1051 192.467 42.8385 192.467 52.4696C192.467 71.732 176.796 87.4032 157.533 87.4032Z" fill="#39BCC1"/>
<path d="M402.113 69.8086C402.113 78.2695 399.699 84.75 394.871 89.25C390.066 93.75 383.117 96 374.023 96H359.469V44.6016H375.605C383.996 44.6016 390.512 46.8164 395.152 51.2461C399.793 55.6758 402.113 61.8633 402.113 69.8086ZM390.793 70.0898C390.793 59.0508 385.918 53.5312 376.168 53.5312H370.367V87H375.043C385.543 87 390.793 81.3633 390.793 70.0898ZM442.367 96H412.766V44.6016H442.367V53.5312H423.664V64.8164H441.066V73.7461H423.664V87H442.367V96ZM482.445 44.6016H493.449L475.977 96H464.094L446.656 44.6016H457.66L467.328 75.1875C467.867 76.9922 468.418 79.1016 468.98 81.5156C469.566 83.9062 469.93 85.5703 470.07 86.5078C470.328 84.3516 471.207 80.5781 472.707 75.1875L482.445 44.6016Z" fill="#32E0C4"/>
<path d="M530.293 81.7266C530.293 86.3672 528.617 90.0234 525.266 92.6953C521.938 95.3672 517.297 96.7031 511.344 96.7031C505.859 96.7031 501.008 95.6719 496.789 93.6094V83.4844C500.258 85.0312 503.188 86.1211 505.578 86.7539C507.992 87.3867 510.195 87.7031 512.188 87.7031C514.578 87.7031 516.406 87.2461 517.672 86.332C518.961 85.418 519.605 84.0586 519.605 82.2539C519.605 81.2461 519.324 80.3555 518.762 79.582C518.199 78.7852 517.367 78.0234 516.266 77.2969C515.188 76.5703 512.973 75.4102 509.621 73.8164C506.48 72.3398 504.125 70.9219 502.555 69.5625C500.984 68.2031 499.73 66.6211 498.793 64.8164C497.855 63.0117 497.387 60.9023 497.387 58.4883C497.387 53.9414 498.922 50.3672 501.992 47.7656C505.086 45.1641 509.352 43.8633 514.789 43.8633C517.461 43.8633 520.004 44.1797 522.418 44.8125C524.855 45.4453 527.398 46.3359 530.047 47.4844L526.531 55.957C523.789 54.832 521.516 54.0469 519.711 53.6016C517.93 53.1562 516.172 52.9336 514.438 52.9336C512.375 52.9336 510.793 53.4141 509.691 54.375C508.59 55.3359 508.039 56.5898 508.039 58.1367C508.039 59.0977 508.262 59.9414 508.707 60.668C509.152 61.3711 509.855 62.0625 510.816 62.7422C511.801 63.3984 514.109 64.5938 517.742 66.3281C522.547 68.625 525.84 70.9336 527.621 73.2539C529.402 75.5508 530.293 78.375 530.293 81.7266ZM561.441 52.9336C557.34 52.9336 554.164 54.4805 551.914 57.5742C549.664 60.6445 548.539 64.9336 548.539 70.4414C548.539 81.9023 552.84 87.6328 561.441 87.6328C565.051 87.6328 569.422 86.7305 574.555 84.9258V94.0664C570.336 95.8242 565.625 96.7031 560.422 96.7031C552.945 96.7031 547.227 94.4414 543.266 89.918C539.305 85.3711 537.324 78.8555 537.324 70.3711C537.324 65.0273 538.297 60.3516 540.242 56.3438C542.188 52.3125 544.977 49.2305 548.609 47.0977C552.266 44.9414 556.543 43.8633 561.441 43.8633C566.434 43.8633 571.449 45.0703 576.488 47.4844L572.973 56.3438C571.051 55.4297 569.117 54.6328 567.172 53.9531C565.227 53.2734 563.316 52.9336 561.441 52.9336ZM627.641 96H616.777V73.8164H596.422V96H585.523V44.6016H596.422V64.7461H616.777V44.6016H627.641V96ZM670.25 96H640.648V44.6016H670.25V53.5312H651.547V64.8164H668.949V73.7461H651.547V87H670.25V96ZM691.906 67.418H695.422C698.867 67.418 701.41 66.8438 703.051 65.6953C704.691 64.5469 705.512 62.7422 705.512 60.2812C705.512 57.8438 704.668 56.1094 702.98 55.0781C701.316 54.0469 698.727 53.5312 695.211 53.5312H691.906V67.418ZM691.906 76.2773V96H681.008V44.6016H695.984C702.969 44.6016 708.137 45.8789 711.488 48.4336C714.84 50.9648 716.516 54.8203 716.516 60C716.516 63.0234 715.684 65.7188 714.02 68.0859C712.355 70.4297 710 72.2695 706.953 73.6055C714.688 85.1602 719.727 92.625 722.07 96H709.977L697.707 76.2773H691.906Z" fill="#0D7377"/>
</g>
<defs>
<filter id="filter0_d" x="0" y="0" width="729.07" height="142" filterUnits="userSpaceOnUse" color-interpolation-filters="sRGB">
<feFlood flood-opacity="0" result="BackgroundImageFix"/>
<feColorMatrix in="SourceAlpha" type="matrix" values="0 0 0 0 0 0 0 0 0 0 0 0 0 0 0 0 0 0 127 0"/>
<feOffset dx="2" dy="3"/>
<feGaussianBlur stdDeviation="2.5"/>
<feColorMatrix type="matrix" values="0 0 0 0 0 0 0 0 0 0 0 0 0 0 0 0 0 0 0.46 0"/>
<feBlend mode="normal" in2="BackgroundImageFix" result="effect1_dropShadow"/>
<feBlend mode="normal" in="SourceGraphic" in2="effect1_dropShadow" result="shape"/>
</filter>
</defs>
</svg>
