<svg width="31" height="45" viewBox="0 0 31 45" fill="none" xmlns="http://www.w3.org/2000/svg">
<path d="M6.60938 31.5781H24.2344C25.7925 31.5781 27.2868 32.1971 28.3886 33.2989C29.4904 34.4007 30.1094 35.895 30.1094 37.4531V43.3281H0.734375V37.4531C0.734375 35.895 1.35335 34.4007 2.45512 33.2989C3.5569 32.1971 5.05123 31.5781 6.60938 31.5781Z" fill="#E8FFC1"/>
<path d="M13.2188 34.5156H17.625L18.3594 43.3281H12.4844L13.2188 34.5156Z" fill="#0278AE"/>
<path d="M8.8125 31.5781L10.2812 37.4531L13.9531 34.5156L13.2188 31.5781H8.8125Z" fill="white"/>
<path d="M22.0312 31.5781L20.5625 37.4531L16.8906 34.5156L17.625 31.5781H22.0312Z" fill="white"/>
<path d="M19.8281 31.5781L15.4219 35.9844L11.0156 31.5781L11.75 22.7656H19.0938L19.8281 31.5781Z" fill="#F4D5BD"/>
<path d="M27.1719 8.07812V15.4219H3.67188V6.60938C3.67188 5.05123 4.29085 3.5569 5.39262 2.45512C6.4944 1.35335 7.98873 0.734375 9.54688 0.734375H15.4219C16.8631 0.734648 18.2537 1.2653 19.3287 2.22516C19.4903 2.21781 19.6592 2.20312 19.8281 2.20312H21.2969C22.855 2.20312 24.3493 2.8221 25.4511 3.92387C26.5529 5.02565 27.1719 6.51998 27.1719 8.07812Z" fill="#3E3D42"/>
<path d="M15.4219 28.6406C12.8899 28.6406 10.4616 27.6348 8.67121 25.8444C6.88083 24.054 5.875 21.6257 5.875 19.0938V12.4844C5.875 11.8003 6.03426 11.1257 6.34018 10.5138C6.6461 9.90201 7.09026 9.3698 7.6375 8.95937C8.4002 8.38735 9.32787 8.07813 10.2812 8.07812H20.5625C21.5159 8.07812 22.4435 8.38735 23.2062 8.95937C23.7535 9.3698 24.1977 9.90201 24.5036 10.5138C24.8095 11.1257 24.9688 11.8003 24.9688 12.4844V19.0938C24.9688 21.6257 23.9629 24.054 22.1725 25.8444C20.3821 27.6348 17.9539 28.6406 15.4219 28.6406Z" fill="#F4D5BD"/>
<path d="M4.40625 12.4844H5.875V17.625H4.40625C4.01671 17.625 3.64313 17.4703 3.36769 17.1948C3.09224 16.9194 2.9375 16.5458 2.9375 16.1562V13.9531C2.9375 13.5636 3.09224 13.19 3.36769 12.9146C3.64313 12.6391 4.01671 12.4844 4.40625 12.4844Z" fill="#F4D5BD"/>
<path d="M26.4375 17.625H24.9688V12.4844H26.4375C26.827 12.4844 27.2006 12.6391 27.4761 12.9146C27.7515 13.19 27.9062 13.5636 27.9062 13.9531V16.1562C27.9062 16.5458 27.7515 16.9194 27.4761 17.1948C27.2006 17.4703 26.827 17.625 26.4375 17.625Z" fill="#F4D5BD"/>
</svg>
